<svg width="214" height="214" viewBox="0 0 214 214" fill="none" xmlns="http://www.w3.org/2000/svg">
<path d="M196.625 160.432C198.782 166.712 194.33 173.312 187.699 173.665L160.592 175.109C156.655 175.319 153.208 177.823 151.791 181.503L142.042 206.837C139.657 213.035 132.005 215.229 126.698 211.237L105.005 194.919C101.853 192.549 97.6033 192.252 94.1528 194.16L70.3999 207.3C64.5891 210.515 57.3169 207.277 55.8175 200.808L49.6884 174.364C48.7981 170.522 45.7334 167.563 41.8632 166.807L15.2213 161.604C8.70376 160.332 5.21416 153.177 8.22384 147.258L20.5267 123.06C22.3139 119.545 21.8685 115.308 19.3896 112.242L2.32475 91.1313C-1.84988 85.967 0.0759144 78.2431 6.18639 75.6431L31.1645 65.0152C34.793 63.4713 37.1754 59.9392 37.2476 55.9966L37.7447 28.856C37.8663 22.2166 44.3064 17.5376 50.6585 19.4736L76.6243 27.3878C80.3962 28.5374 84.4916 27.3631 87.0812 24.3893L104.908 3.91793C109.269 -1.09004 117.21 -0.534765 120.831 5.0314L135.635 27.7845C137.785 31.0898 141.678 32.8226 145.573 32.2091L172.387 27.9857C178.947 26.9526 184.673 32.4823 183.87 39.0741L180.585 66.0197C180.108 69.934 181.975 73.7633 185.354 75.7971L208.609 89.7979C214.299 93.223 215.131 101.14 210.278 105.673L190.441 124.203C187.56 126.895 186.529 131.028 187.809 134.758L196.625 160.432Z" fill="#89A6FB"/>
</svg>
